<svg width="242" height="251" viewBox="0 0 242 251" fill="none" xmlns="http://www.w3.org/2000/svg">
<circle cx="121" cy="121" r="121" fill="url(#paint0_linear_54845_71311)"/>
<circle cx="121" cy="130" r="119.5" fill="url(#paint1_linear_54845_71311)" stroke="url(#paint2_linear_54845_71311)" stroke-width="3"/>
<circle cx="121" cy="133" r="86" fill="url(#paint3_linear_54845_71311)" stroke="url(#paint4_linear_54845_71311)" stroke-width="2"/>
<ellipse cx="121.5" cy="129" rx="83.5" ry="83" fill="url(#paint5_linear_54845_71311)"/>
<path d="M83.9984 124.595L80.3388 111.737L80.2354 111.374H79.8579H68H67.2782L67.5319 112.05L77.5702 138.787C77.448 139.259 77.2737 139.492 77.1122 139.597L77.097 139.607L77.0826 139.618C76.8746 139.776 76.485 139.9 75.8212 139.9C74.5446 139.9 73.4521 139.64 72.5278 139.138L71.9653 138.832L71.805 139.452L69.5343 148.229L69.4222 148.662L69.8405 148.822L70.8411 149.202C72.9143 150.079 75.7637 150.5 79.3533 150.5C82.0852 150.5 84.241 149.658 85.7373 147.912C87.2045 146.203 88.5079 143.746 89.6621 140.572C89.6623 140.572 89.6625 140.571 89.6627 140.571L100.258 112.048L100.508 111.374H99.7892H88.1836H87.8073L87.7032 111.736L83.9984 124.595ZM128.323 125.336L128.324 125.325V125.314C128.324 120.968 127.028 117.45 124.396 114.816C121.832 112.144 118.415 110.826 114.2 110.826C109.852 110.826 106.227 112.142 103.364 114.799C100.481 117.474 99.0665 121.204 99.0665 125.918C99.0665 130.628 100.445 134.373 103.256 137.084L103.256 137.084L103.263 137.091C106.094 139.713 109.703 141.01 114.048 141.01C119.267 141.01 123.645 139.458 127.145 136.332C127.146 136.331 127.147 136.33 127.147 136.329L127.395 136.114L127.737 135.817L127.474 135.447L123.185 129.413L123.084 129.27H127.672H128.151L128.172 128.792L128.323 125.336ZM111.414 129.27H122.522L122.481 129.3C120.591 130.693 118.343 131.397 115.713 131.397C114.3 131.397 113.263 131.144 112.549 130.693C112.013 130.354 111.634 129.887 111.414 129.27ZM115.951 120.277L115.961 120.288L115.971 120.298C116.366 120.68 116.634 121.172 116.759 121.797H111.337C111.462 121.172 111.73 120.68 112.125 120.298L112.13 120.293L112.136 120.287C112.642 119.767 113.268 119.506 114.048 119.506C114.868 119.506 115.485 119.77 115.951 120.277ZM130.965 125.771C131.826 127.151 133.112 128.155 134.789 128.792C135.365 129.063 136.397 129.435 137.859 129.905L137.934 129.929H138.012C138.082 129.929 138.259 129.958 138.584 130.057C138.893 130.152 139.295 130.297 139.792 130.495C139.793 130.496 139.794 130.496 139.795 130.496L140.848 130.933L140.871 130.942L140.894 130.949C141.285 131.068 141.529 131.195 141.667 131.309C141.793 131.413 141.801 131.478 141.801 131.513C141.801 131.636 141.766 131.69 141.678 131.743C141.549 131.82 141.292 131.891 140.838 131.891C139.782 131.891 138.25 131.549 136.213 130.823C134.837 130.324 133.689 129.724 132.761 129.029L132.293 128.678L132.02 129.195L128.185 136.436L127.993 136.797L128.309 137.056C131.575 139.738 135.663 141.065 140.535 141.065C144.14 141.065 147.04 140.225 149.174 138.485C151.546 136.598 152.741 134.114 152.741 131.074C152.741 128.419 152.006 126.24 150.49 124.592C149.589 123.612 148.297 122.754 146.645 122.006L146.643 122.005C146.04 121.736 144.801 121.307 142.956 120.723L142.956 120.723L142.948 120.721C142.033 120.449 141.377 120.2 140.96 119.977C140.749 119.865 140.625 119.773 140.559 119.706C140.546 119.694 140.538 119.684 140.532 119.676C140.54 119.544 140.587 119.484 140.659 119.437C140.775 119.36 141.011 119.286 141.443 119.286C143.67 119.286 146.046 120.116 148.58 121.833L149.074 122.168L149.317 121.623L152.395 114.711L152.563 114.334L152.225 114.097C149.037 111.875 145.302 110.771 141.039 110.771C137.814 110.771 135.089 111.659 132.9 113.463L132.898 113.465C130.755 115.251 129.691 117.665 129.691 120.651C129.691 122.674 130.104 124.391 130.965 125.771ZM140.519 119.658C140.519 119.658 140.519 119.659 140.52 119.66C140.519 119.659 140.519 119.658 140.519 119.658ZM156.399 126.706L156.419 127.186H156.899H166.739H167.219L167.238 126.706L168.247 102.02L168.269 101.5H167.748H155.89H155.369L155.39 102.02L156.399 126.706ZM156.957 139.28L156.957 139.28L156.964 139.286C158.189 140.417 159.836 140.955 161.844 140.955C163.793 140.955 165.406 140.393 166.627 139.228C167.889 138.057 168.5 136.47 168.5 134.53C168.5 132.557 167.891 130.951 166.627 129.778C165.406 128.612 163.793 128.051 161.844 128.051C159.831 128.051 158.182 128.61 156.957 129.78C155.728 130.955 155.138 132.56 155.138 134.53C155.138 136.5 155.728 138.106 156.957 139.28Z" stroke="url(#paint6_linear_54845_71311)"/>
<path d="M83.9955 126.411L88.1836 111.874H99.7892L89.1928 140.4C88.0491 143.545 86.7708 145.941 85.3579 147.586C83.9787 149.195 81.9772 150 79.3533 150C75.7875 150 73.0123 149.579 71.0275 148.738L70.0184 148.354L72.289 139.577C73.2982 140.126 74.4756 140.4 75.8212 140.4C76.5276 140.4 77.049 140.272 77.3854 140.016C77.7218 139.797 77.9573 139.376 78.0918 138.754L68 111.874H79.8579L83.9955 126.411Z" fill="url(#paint7_linear_54845_71311)"/>
<path d="M127.824 125.314L127.672 128.77H110.768C111.138 130.855 112.787 131.897 115.713 131.897C118.438 131.897 120.793 131.166 122.778 129.703L127.067 135.737L126.814 135.957C123.417 138.992 119.161 140.51 114.048 140.51C109.81 140.51 106.328 139.248 103.603 136.725C100.912 134.128 99.5665 130.526 99.5665 125.918C99.5665 121.31 100.946 117.726 103.704 115.166C106.463 112.606 109.961 111.326 114.2 111.326C118.304 111.326 121.583 112.606 124.039 115.166C126.562 117.689 127.824 121.072 127.824 125.314ZM110.768 122.297H117.328C117.261 121.31 116.924 120.523 116.319 119.938C115.747 119.317 114.99 119.006 114.048 119.006C113.14 119.006 112.383 119.317 111.778 119.938C111.172 120.523 110.836 121.31 110.768 122.297Z" fill="url(#paint8_linear_54845_71311)"/>
<path d="M152.241 131.074C152.241 133.963 151.114 136.304 148.861 138.096C146.842 139.742 144.067 140.565 140.535 140.565C135.758 140.565 131.789 139.266 128.627 136.67L132.461 129.429C133.437 130.16 134.631 130.782 136.044 131.294C138.096 132.025 139.694 132.391 140.838 132.391C141.813 132.391 142.301 132.098 142.301 131.513C142.301 131.074 141.88 130.727 141.039 130.471L139.98 130.032C138.971 129.63 138.315 129.429 138.012 129.429C136.532 128.953 135.523 128.587 134.984 128.331C131.789 127.125 130.191 124.565 130.191 120.651C130.191 117.799 131.2 115.531 133.218 113.849C135.304 112.13 137.911 111.271 141.039 111.271C145.211 111.271 148.844 112.35 151.939 114.507L148.861 121.419C146.27 119.664 143.798 118.786 141.443 118.786C140.501 118.786 140.03 119.097 140.03 119.719C140.03 120.158 140.955 120.651 142.806 121.2C144.656 121.785 145.867 122.206 146.439 122.462C148.053 123.193 149.281 124.016 150.122 124.93C151.535 126.466 152.241 128.514 152.241 131.074Z" fill="url(#paint9_linear_54845_71311)"/>
<path d="M156.899 126.686L155.89 102H167.748L166.739 126.686H156.899ZM161.844 140.455C159.927 140.455 158.413 139.943 157.303 138.919C156.193 137.858 155.638 136.395 155.638 134.53C155.638 132.665 156.193 131.202 157.303 130.142C158.413 129.081 159.927 128.551 161.844 128.551C163.694 128.551 165.174 129.081 166.284 130.142C167.428 131.202 168 132.665 168 134.53C168 136.359 167.428 137.803 166.284 138.864C165.174 139.925 163.694 140.455 161.844 140.455Z" fill="url(#paint10_linear_54845_71311)"/>
<defs>
<linearGradient id="paint0_linear_54845_71311" x1="242" y1="94" x2="-21" y2="25" gradientUnits="userSpaceOnUse">
<stop stop-color="#C05004"/>
<stop offset="0.199" stop-color="#DF810F"/>
<stop offset="0.374" stop-color="#ECA320"/>
<stop offset="0.554" stop-color="#EBAF1C"/>
<stop offset="0.784" stop-color="#FFCF85"/>
<stop offset="1" stop-color="#FCD8A1"/>
</linearGradient>
<linearGradient id="paint1_linear_54845_71311" x1="174" y1="22" x2="62" y2="229" gradientUnits="userSpaceOnUse">
<stop stop-color="#FF982A"/>
<stop offset="0.333333" stop-color="#FC9900"/>
<stop offset="0.537335" stop-color="#EBAF13"/>
<stop offset="0.829" stop-color="#F7CD57"/>
<stop offset="1" stop-color="#FAD666"/>
</linearGradient>
<linearGradient id="paint2_linear_54845_71311" x1="162" y1="14" x2="121" y2="251" gradientUnits="userSpaceOnUse">
<stop stop-color="#FAB819" stop-opacity="0.65"/>
<stop offset="1" stop-color="#F5CD53" stop-opacity="0"/>
</linearGradient>
<linearGradient id="paint3_linear_54845_71311" x1="208" y1="159" x2="34" y2="133" gradientUnits="userSpaceOnUse">
<stop stop-color="#FBDE47"/>
<stop offset="0.275459" stop-color="#FED156"/>
<stop offset="0.669" stop-color="#E99B23"/>
<stop offset="1" stop-color="#E47B0A"/>
</linearGradient>
<linearGradient id="paint4_linear_54845_71311" x1="42" y1="173" x2="200" y2="92" gradientUnits="userSpaceOnUse">
<stop stop-color="#FFD557"/>
<stop offset="1" stop-color="#FACE01" stop-opacity="0"/>
</linearGradient>
<linearGradient id="paint5_linear_54845_71311" x1="145.494" y1="46" x2="107.538" y2="206.379" gradientUnits="userSpaceOnUse">
<stop offset="0.149" stop-color="#FDCC05"/>
<stop offset="0.554" stop-color="#FDDC71"/>
<stop offset="0.939" stop-color="#FDB708"/>
</linearGradient>
<linearGradient id="paint6_linear_54845_71311" x1="113" y1="102" x2="107.5" y2="150" gradientUnits="userSpaceOnUse">
<stop stop-color="#CD8608"/>
<stop offset="0.485" stop-color="#F0DE77"/>
<stop offset="1" stop-color="#F0870C"/>
</linearGradient>
<linearGradient id="paint7_linear_54845_71311" x1="129" y1="98.5" x2="112" y2="167.5" gradientUnits="userSpaceOnUse">
<stop stop-color="#E68F04"/>
<stop offset="0.54" stop-color="#FCC100"/>
<stop offset="1" stop-color="#EC8B0C"/>
</linearGradient>
<linearGradient id="paint8_linear_54845_71311" x1="129" y1="98.5" x2="112" y2="167.5" gradientUnits="userSpaceOnUse">
<stop stop-color="#E68F04"/>
<stop offset="0.54" stop-color="#FCC100"/>
<stop offset="1" stop-color="#EC8B0C"/>
</linearGradient>
<linearGradient id="paint9_linear_54845_71311" x1="129" y1="98.5" x2="112" y2="167.5" gradientUnits="userSpaceOnUse">
<stop stop-color="#E68F04"/>
<stop offset="0.54" stop-color="#FCC100"/>
<stop offset="1" stop-color="#EC8B0C"/>
</linearGradient>
<linearGradient id="paint10_linear_54845_71311" x1="129" y1="98.5" x2="112" y2="167.5" gradientUnits="userSpaceOnUse">
<stop stop-color="#E68F04"/>
<stop offset="0.54" stop-color="#FCC100"/>
<stop offset="1" stop-color="#EC8B0C"/>
</linearGradient>
</defs>
</svg>
